<?xml version="1.0" standalone="no"?>
<!DOCTYPE svg PUBLIC "-//W3C//DTD SVG 20010904//EN"
 "http://www.w3.org/TR/2001/REC-SVG-20010904/DTD/svg10.dtd">
<svg version="1.0" xmlns="http://www.w3.org/2000/svg"
 width="512.000000pt" height="512.000000pt" viewBox="0 0 512.000000 512.000000"
 preserveAspectRatio="xMidYMid meet">
<metadata>
Created by potrace 1.14, written by Peter Selinger 2001-2017
</metadata>
<g transform="translate(0.000000,512.000000) scale(0.100000,-0.100000)"
fill="#000000" stroke="none">
<path d="M3055 5006 c-46 -12 -102 -45 -127 -75 -25 -30 -36 -53 -74 -163 -20
-56 -51 -133 -71 -172 l-35 -70 -33 60 c-49 87 -64 104 -102 121 -54 22 -117
9 -155 -34 -32 -35 -127 -229 -158 -323 -18 -52 -35 -98 -39 -101 -3 -4 -46 2
-96 12 -143 29 -249 35 -280 15 -14 -9 -25 -23 -25 -31 0 -8 -3 -15 -7 -16 -5
0 -52 -2 -105 -3 l-97 -2 -12 27 c-13 34 -54 49 -111 44 -24 -2 -68 -7 -99 -9
-73 -7 -99 -19 -128 -61 -58 -85 -32 -139 147 -297 54 -48 62 -60 40 -64 -45
-6 -198 -53 -282 -86 -564 -220 -996 -711 -1147 -1303 -52 -204 -69 -494 -42
-705 58 -455 263 -849 611 -1173 59 -55 219 -177 260 -198 15 -8 42 -24 61
-36 49 -33 209 -109 294 -139 138 -50 286 -87 402 -99 28 -3 58 -8 68 -11 62
-19 458 2 622 32 47 9 375 11 420 3 22 -4 72 -10 110 -14 39 -4 84 -9 100 -12
17 -3 66 -8 110 -11 343 -29 728 51 1031 214 145 77 181 113 164 159 -8 20 0
30 72 84 63 49 84 60 101 55 58 -20 67 -15 155 78 266 280 434 623 498 1013
26 161 26 416 -1 595 -42 282 -166 579 -343 820 -269 367 -651 620 -1100 731
l-43 10 52 47 c188 167 214 218 160 306 -38 61 -97 71 -449 71 -100 0 -182 1
-182 3 0 1 15 33 34 70 39 78 86 197 117 297 35 116 17 208 -54 276 -67 65
-148 87 -232 65z"/>
</g>
</svg>
