<?xml version="1.0" encoding="iso-8859-1"?>
<!-- Generator: Adobe Illustrator 19.0.0, SVG Export Plug-In . SVG Version: 6.00 Build 0)  -->
<svg version="1.1" id="Layer_1" xmlns="http://www.w3.org/2000/svg" xmlns:xlink="http://www.w3.org/1999/xlink" x="0px" y="0px"
	 viewBox="0 0 512 512" style="enable-background:new 0 0 512 512;" xml:space="preserve">
<path style="fill:#D53349;" d="M73.007,423.973C32.395,379.752,7.604,320.772,7.604,256C7.604,118.814,118.814,7.604,256,7.604
	S504.396,118.814,504.396,256S393.186,504.396,256,504.396c-65.141,0-124.425-25.075-168.727-66.099"/>
<g>
	<path style="fill:#53180F;" d="M256,512c-64.696,0-126.453-24.194-173.893-68.123l10.332-11.159
		C137.06,474.037,195.148,496.792,256,496.792c64.318,0,124.786-25.046,170.266-70.526S496.792,320.318,496.792,256
		s-25.046-124.786-70.527-170.266C380.786,40.254,320.318,15.208,256,15.208S131.214,40.254,85.735,85.734
		C40.254,131.214,15.208,191.682,15.208,256c0,60.486,22.516,118.313,63.399,162.829l-11.2,10.287C23.938,381.787,0,320.306,0,256
		c0-68.38,26.629-132.668,74.981-181.019C123.332,26.629,187.62,0,256,0s132.667,26.629,181.019,74.981
		C485.371,123.332,512,187.62,512,256s-26.629,132.667-74.981,181.019S324.38,512,256,512z"/>
	<path style="fill:#53180F;" d="M222.689,226.796L66.221,136.461l4.557-6.759c25.614-37.988,60.482-65.643,103.638-82.197
		c26.209-10.053,49.648-13.704,64.694-14.997l8.255-0.709v180.73l-5.217,1.725c-5.686,1.88-10.852,4.869-15.356,8.884
		L222.689,226.796z M88.08,131.52l132.927,76.745c3.48-2.562,7.206-4.719,11.148-6.45V48.54
		c-13.726,1.74-32.124,5.427-52.293,13.163C142.258,76.128,111.417,99.596,88.08,131.52z"/>
	<path style="fill:#53180F;" d="M57.585,360.583l-3.576-7.324c-21.488-44.003-27.456-91.083-17.74-139.933
		c4.69-23.587,12.246-42.614,17.759-54.421l3.509-7.516l156.482,90.344l-1.095,5.367c-0.597,2.923-0.899,5.918-0.899,8.899
		c0,2.981,0.302,5.976,0.899,8.899l1.095,5.366L57.585,360.583z M64.444,172.939c-4.574,10.906-9.763,25.772-13.26,43.354
		c-8.509,42.781-4.117,84.083,13.047,122.893l132.933-76.75c-0.232-2.138-0.349-4.289-0.349-6.435c0-2.146,0.117-4.297,0.349-6.436
		L64.444,172.939z"/>
	<path style="fill:#53180F;" d="M247.364,480.124l-8.143-0.58c-95.202-6.773-149.41-70.211-168.297-97.172l-4.762-6.798
		l156.527-90.371l4.102,3.658c4.504,4.016,9.67,7.005,15.356,8.884l5.217,1.725L247.364,480.124z M88.293,380.358
		c20.42,26.744,67.173,74.833,143.864,83.28l-0.001-153.453c-3.943-1.732-7.669-3.887-11.147-6.449L88.293,380.358z"/>
	<path style="fill:#53180F;" d="M264.636,480.202l-0.001-180.73l5.217-1.725c5.685-1.879,10.851-4.868,15.357-8.884l4.102-3.657
		l156.466,90.334l-4.557,6.759c-25.615,37.987-60.483,65.642-103.637,82.197c-26.21,10.052-49.648,13.704-64.694,14.996
		L264.636,480.202z M279.843,310.186l0.001,153.277c13.726-1.74,32.123-5.427,52.294-13.163
		c37.603-14.424,68.445-37.893,91.781-69.818L290.99,303.738C287.511,306.299,283.785,308.454,279.843,310.186z"/>
	<path style="fill:#53180F;" d="M454.465,360.612l-156.484-90.345l1.095-5.366c0.597-2.923,0.899-5.918,0.899-8.9
		c0-2.98-0.302-5.974-0.898-8.899l-1.094-5.365l156.432-90.318l3.576,7.324c21.488,44.002,27.457,91.082,17.742,139.933
		c-4.69,23.585-12.245,42.613-17.759,54.421L454.465,360.612z M314.834,262.436l132.723,76.627
		c4.574-10.907,9.763-25.773,13.259-43.354c8.509-42.782,4.116-84.084-13.048-122.892l-132.933,76.75
		c0.231,2.138,0.349,4.289,0.349,6.433C315.183,258.146,315.067,260.298,314.834,262.436z"/>
	<path style="fill:#53180F;" d="M289.312,226.796l-4.102-3.657c-4.505-4.017-9.672-7.007-15.356-8.885l-5.217-1.725l-0.001-180.651
		l8.143,0.579c95.202,6.773,149.41,70.211,168.297,97.172l4.762,6.798L289.312,226.796z M279.845,201.815
		c3.943,1.732,7.669,3.887,11.148,6.45l132.714-76.624c-20.42-26.744-67.173-74.833-143.863-83.28V201.815z"/>
	<path style="fill:#53180F;" d="M382.941,131.077c-16.33-16.461-43.845-38.159-82.186-48.051l3.8-14.725
		c32.996,8.513,63.835,26.518,89.181,52.066L382.941,131.077z"/>
	
		<rect x="195.678" y="164.715" transform="matrix(-0.5 -0.866 0.866 -0.5 162.2895 438.3351)" style="fill:#53180F;" width="24.004" height="15.208"/>
	
		<rect x="292.328" y="332.069" transform="matrix(-0.5 -0.866 0.866 -0.5 162.336 773.0685)" style="fill:#53180F;" width="24.005" height="15.208"/>
	<rect x="147.375" y="248.396" style="fill:#53180F;" width="24.004" height="15.208"/>
	<rect x="340.627" y="248.396" style="fill:#53180F;" width="24.003" height="15.208"/>
	
		<rect x="200.087" y="327.67" transform="matrix(-0.866 -0.5 0.5 -0.866 217.715 737.6818)" style="fill:#53180F;" width="15.208" height="24.004"/>
	
		<rect x="296.703" y="160.311" transform="matrix(-0.866 -0.5 0.5 -0.866 481.6837 473.6954)" style="fill:#53180F;" width="15.208" height="24.003"/>
</g>
<g>
</g>
<g>
</g>
<g>
</g>
<g>
</g>
<g>
</g>
<g>
</g>
<g>
</g>
<g>
</g>
<g>
</g>
<g>
</g>
<g>
</g>
<g>
</g>
<g>
</g>
<g>
</g>
<g>
</g>
</svg>
