<svg width="448" height="446" viewBox="0 0 448 446" fill="none" xmlns="http://www.w3.org/2000/svg">
<path fill-rule="evenodd" clip-rule="evenodd" d="M442.536 83.959C449.186 89.7779 449.86 99.8861 444.041 106.536L220.041 362.536C217.125 365.869 212.958 367.844 208.532 367.991C204.107 368.139 199.818 366.445 196.686 363.314L100.686 267.314C94.4379 261.066 94.4379 250.935 100.686 244.687C106.935 238.438 117.065 238.438 123.314 244.687L207.221 328.593L419.959 85.4642C425.778 78.814 435.886 78.1401 442.536 83.959Z" fill="black"/>
<path fill-rule="evenodd" clip-rule="evenodd" d="M4.68629 244.687C10.9347 238.438 21.0653 238.438 27.3137 244.687L123.314 340.687C129.562 346.935 129.562 357.066 123.314 363.314C117.065 369.562 106.935 369.562 100.686 363.314L4.68629 267.314C-1.5621 261.066 -1.5621 250.935 4.68629 244.687Z" fill="black"/>
<path fill-rule="evenodd" clip-rule="evenodd" d="M346.514 83.9399C353.175 89.7467 353.867 99.8536 348.06 106.514L212.06 262.514C206.254 269.175 196.147 269.867 189.486 264.061C182.825 258.254 182.133 248.147 187.94 241.486L323.94 85.4861C329.746 78.8253 339.853 78.1331 346.514 83.9399Z" fill="black"/>
</svg>
