<?xml version="1.0" standalone="no"?>
<!DOCTYPE svg PUBLIC "-//W3C//DTD SVG 20010904//EN"
 "http://www.w3.org/TR/2001/REC-SVG-20010904/DTD/svg10.dtd">
<svg version="1.0" xmlns="http://www.w3.org/2000/svg"
 width="512.000000pt" height="512.000000pt" viewBox="0 0 512.000000 512.000000"
 preserveAspectRatio="xMidYMid meet">
<metadata>
Created by potrace 1.14, written by Peter Selinger 2001-2017
</metadata>
<g transform="translate(0.000000,512.000000) scale(0.100000,-0.100000)"
fill="#000000" stroke="none">
<path d="M3072 5003 c-49 -10 -95 -72 -130 -178 -50 -151 -169 -383 -196 -381
-5 1 -36 55 -70 121 -71 136 -97 161 -143 135 -48 -27 -161 -264 -200 -417
-11 -47 -22 -67 -36 -72 -12 -5 -55 2 -106 15 -148 38 -282 51 -519 48 -194
-1 -305 -10 -333 -25 -29 -15 -32 -58 -8 -93 28 -40 165 -162 263 -235 84 -62
84 -62 -20 -75 -139 -17 -322 -74 -489 -151 -95 -43 -285 -155 -285 -167 0 -4
-6 -8 -14 -8 -8 0 -16 -4 -18 -8 -1 -4 -21 -21 -43 -37 -44 -33 -115 -97 -179
-161 -234 -233 -414 -553 -487 -864 -45 -193 -54 -265 -53 -460 0 -201 11
-286 55 -460 30 -120 51 -185 62 -196 4 -4 7 -14 7 -21 0 -49 151 -322 251
-453 109 -144 264 -300 367 -369 20 -13 39 -28 42 -32 10 -15 178 -114 265
-157 174 -85 357 -142 570 -175 88 -14 447 -17 505 -4 14 3 45 8 70 11 303 39
466 37 800 -11 69 -10 408 -10 475 0 99 15 121 19 220 44 465 114 885 420
1142 834 146 234 238 506 272 799 9 78 6 376 -3 420 -3 14 -9 45 -12 70 -3 25
-8 52 -9 60 -66 329 -227 655 -435 885 -111 122 -309 293 -392 338 -13 7 -41
24 -64 39 -144 93 -422 197 -611 229 -32 5 -74 12 -93 15 -19 3 -36 7 -37 8
-1 1 35 28 79 61 112 83 278 245 278 271 0 27 -35 64 -63 65 -12 0 -35 3 -52
5 -53 9 -508 6 -576 -3 l-65 -9 39 59 c76 115 180 352 209 477 14 61 0 117
-40 162 -45 50 -108 67 -190 51z"/>
</g>
</svg>
